<?xml version="1.0" encoding="utf-8"?>
<!-- Generator: Adobe Illustrator 26.4.0, SVG Export Plug-In . SVG Version: 6.00 Build 0)  -->
<svg version="1.2" baseProfile="tiny" id="Laag_1" xmlns="http://www.w3.org/2000/svg" xmlns:xlink="http://www.w3.org/1999/xlink"
	 x="0px" y="0px" viewBox="0 0 600 262.5" overflow="visible" xml:space="preserve">
<g>
	<path d="M138.5,49.7c0-0.7,0.2-1.2,0.6-1.6c0.4-0.4,0.8-0.6,1.3-0.6c0.7,0,1.2,0.5,1.4,1.4l0.1,3.4c1.3-1.7,2.8-3.4,4.3-5.1
		c1.5-1.7,3.1-3.3,4.8-4.6c1.7-1.3,3.4-2.4,5.2-3.3c1.8-0.8,3.6-1.3,5.5-1.3c1.1,0,2.3,0.2,3.5,0.6c4,1.4,6.8,3.4,8.4,6
		c1.6,2.7,2.4,5.6,2.4,8.8c0,2.6-0.4,5.2-1.1,7.8c-0.7,2.6-1.7,5.1-2.8,7.4c-1.2,2.3-2.4,4.4-3.7,6.3c-1.3,1.9-2.5,3.3-3.6,4.2
		c-1.3,1.1-2.9,2.1-4.9,2.9c-2,0.9-4,1.3-6,1.3c-1.4,0-2.7-0.3-4-0.8c-1.3-0.5-2.5-1.4-3.5-2.7c0.1-0.6,0.3-1.1,0.6-1.5
		c0.3-0.4,0.7-0.6,1.2-0.6c0.5,0,1,0.3,1.4,0.9c0.7,0.2,1.3,0.4,1.9,0.5c0.6,0.1,1.2,0.2,1.9,0.2c2,0,3.8-0.6,5.5-1.7
		c1.7-1.1,3.3-2.5,4.7-4.1c1.4-1.6,2.6-3.4,3.5-5.3c1-1.9,1.7-3.6,2.3-5.3c0.5-1.4,0.8-2.8,1-4.2c0.2-1.4,0.3-2.8,0.3-4
		c0-3-0.6-5.5-1.9-7.4c-1.3-1.9-3.1-2.9-5.4-2.9c-1.8,0-3.7,0.5-5.6,1.5c-1.9,1-3.8,2.3-5.5,3.9c-1.8,1.6-3.4,3.5-5,5.5
		c-1.6,2.1-3,4.1-4.2,6.2c0.3,3,0.6,5.8,0.8,8.2c0.2,2.4,0.3,4.9,0.3,7.5c0,3.3-0.2,6.6-0.7,9.8c-0.4,3.2-1.1,6.1-2.1,8.6
		c-0.9,2.5-2.1,4.6-3.5,6.1c-1.4,1.6-3.1,2.3-5.2,2.3c-2.7,0-4.5-1.1-5.5-3.2c-1-2.2-1.5-5.2-1.5-9c0-2.2,0.1-4.2,0.3-6
		c0.2-1.8,0.4-3.1,0.7-4c0.7-2.2,1.5-4.4,2.3-6.4c0.9-2.1,1.8-4.1,2.8-6.1c1-2,2.1-4,3.2-6.1c1.1-2.1,2.3-4.2,3.5-6.4
		c-0.1-1.3-0.1-2.5-0.1-3.7C138.6,52.3,138.6,51,138.5,49.7z M138.6,84.9c0.1-1.4,0.1-2.6,0.2-3.6c0.1-1.1,0.1-2.1,0.2-3.1
		c0.1-1,0.1-2,0.2-2.9c0.1-1,0.1-2,0.1-3.2c0-0.5,0-0.9-0.1-1.4c0-0.5-0.1-1-0.1-1.5c-0.9,2-1.8,4-2.8,6c-1,2.1-1.9,4.2-2.7,6.3
		c-0.8,2.2-1.5,4.4-2,6.6c-0.5,2.2-0.8,4.5-0.8,6.7c0,1.6,0.2,2.8,0.5,3.5c0.3,0.7,0.7,1.1,1.2,1.1c0.5,0,1-0.4,1.7-1.2
		c0.7-0.8,1.3-1.9,1.9-3.2c0.6-1.3,1.1-2.9,1.5-4.6C138.2,88.6,138.5,86.8,138.6,84.9z"/>
	<path d="M166.1,93.6c-0.1,0-0.1,0-0.2,0.1c0,0-0.1,0.1-0.3,0.1c-0.5,0-1-0.2-1.3-0.6c-0.3-0.4-0.5-0.8-0.5-1.3
		c0-0.6,0.2-1.1,0.7-1.5c0.6-1.1,1.4-2.6,2.4-4.7c1-2,2-4.1,3-6.3c1-2.2,2-4.2,2.9-6.1c0.9-1.9,1.7-3.3,2.2-4.2
		c0.5-0.5,1.2-0.8,1.9-0.8c0.6,0,1.3,0.2,2,0.6c1.3,1.8,2.5,3.4,3.4,4.7c0.9,1.3,1.7,2.5,2.3,3.6c0.6,1.1,1,2.2,1.3,3.2
		c0.3,1,0.4,2.2,0.4,3.4c0,1.5-0.2,3.1-0.6,5c-0.4,1.8-0.8,4.2-1.4,7c1.6-0.3,3.2-0.8,4.8-1.4c1.6-0.6,3.1-1.2,4.7-1.8
		c0.3-0.1,0.5-0.2,0.8-0.2c0.5,0,0.9,0.2,1.2,0.5c0.3,0.3,0.4,0.7,0.4,1.1c0,0.5-0.5,1.2-1.5,1.9s-2.2,1.4-3.6,2.2
		c-1.4,0.7-2.8,1.4-4.3,2.1c-1.5,0.6-2.7,1.1-3.5,1.5h-1c-1.2,0-2.2-0.6-2.9-1.8c-0.7-1.2-1.1-2.3-1.1-3.3c0-1.1,0.2-2.3,0.5-3.4
		c0.3-1.1,0.6-2.3,0.7-3.4c0.2-1.5,0.3-2.8,0.3-4.1c0-1.8-0.2-3.5-0.7-5.1c-0.5-1.6-1.3-3.2-2.4-5.1c-0.3,0.4-0.7,1.1-1.2,2.1
		c-0.5,1-1.1,2.1-1.8,3.4c-0.6,1.3-1.3,2.6-2.1,4c-0.7,1.4-1.5,2.7-2.2,3.9c-0.7,1.2-1.4,2.3-2,3.1
		C167.1,92.8,166.5,93.4,166.1,93.6z"/>
	<path d="M212.6,77.8c-0.7,1.4-1.4,2.8-2.2,4.3c-0.8,1.4-1.7,2.7-2.6,4c-1,1.2-2.1,2.3-3.2,3.2c-1.2,0.9-2.5,1.6-4,2
		c0,1.4,0.2,2.8,0.6,4.2c0.4,1.4,1.2,2.1,2.5,2.1c0.3,0,0.7,0,1.1-0.1c0.4-0.1,0.8-0.3,1.3-0.6c0.4-0.2,1-0.6,1.8-1.1
		c0.8-0.5,1.6-1.2,2.5-1.9c0.9-0.7,1.8-1.5,2.6-2.3c0.8-0.8,1.5-1.7,1.9-2.6c0.2-0.5,0.5-0.7,0.9-0.7c0.5,0,0.9,0.2,1.3,0.6
		c0.4,0.4,0.6,0.9,0.6,1.4c0,0.5-0.4,1.2-1.2,2.2c-0.8,1-1.7,2.1-2.8,3.1c-1,1.1-2.1,2.1-3.2,3c-1.1,0.9-2,1.6-2.6,1.8
		c-0.2,0.1-0.8,0.4-1.8,0.9c-1,0.5-1.8,0.8-2.5,0.8c-1.5,0-2.8-0.3-3.8-0.9c-1.1-0.6-2-1.4-2.7-2.4c-0.7-1-1.2-2.2-1.6-3.5
		c-0.3-1.3-0.5-2.7-0.5-4.1c-0.4-0.2-0.6-0.6-0.6-1.1c0-0.5,0.2-0.9,0.5-1.2c0-0.8,0-1.6,0.1-2.5c0.1-0.8,0.2-1.7,0.5-2.6
		c0.4-1.4,1-3.1,1.7-5.1c0.7-2,1.6-3.8,2.7-5.6c1.1-1.8,2.4-3.3,3.8-4.6c1.5-1.2,3.2-1.9,5.1-1.9c1.9,0,3.2,0.6,3.8,1.9
		c0.7,1.3,1,2.7,1,4.3c0,0.9-0.1,1.9-0.3,2.8C213.2,76.5,212.9,77.2,212.6,77.8z M207.7,73.5c-0.7,0.5-1.4,1.3-2,2.4
		c-0.7,1-1.3,2.2-1.8,3.4c-0.5,1.2-1,2.5-1.5,3.7c-0.5,1.3-0.8,2.5-1.1,3.5c0.8-0.7,1.8-2.2,3-4.3c0.3-0.5,0.6-1.1,1-1.8
		c0.4-0.7,0.8-1.5,1.1-2.3c0.3-0.8,0.6-1.7,0.9-2.5C207.6,74.9,207.7,74.2,207.7,73.5z"/>
	<path d="M223.5,84.8c0.2-2.2,0.5-4.4,0.8-6.5c0.3-2.1,0.7-4.3,1.2-6.4c-2.4,0.5-4.2,1-5.2,1.4c-1,0.4-1.8,0.6-2.4,0.6
		c-0.8,0-1.2-0.5-1.2-1.6c0-1,0.7-2,2-2.9s2.9-1.7,4.6-2.5c1.1-0.9,1.9-1.8,2.5-2.6c0.6-0.8,1.1-1.6,1.5-2.4c0.4-0.8,0.7-1.8,1-2.8
		c0.3-1,0.6-2.2,1-3.6c0.2-0.6,0.5-1.6,0.8-3c0.3-1.4,0.7-2.8,1.2-4.2c0.5-1.4,1.1-2.7,1.9-3.7c0.7-1.1,1.7-1.6,2.7-1.6
		c1.1,0,1.6,0.5,1.6,1.5c0,0.5-0.1,1.3-0.3,2.3c-0.2,1-0.5,2.2-0.9,3.8c-0.4,1.6-0.8,3.5-1.3,5.7c-0.5,2.3-1.1,4.9-1.7,8.1
		c0.7,0,1.3,0,1.9-0.1c0.6,0,1.2-0.1,1.8-0.1c0.7,0,1.6,0,2.7,0c1,0,2.1,0.1,3,0.2c1,0.1,1.8,0.3,2.5,0.6c0.7,0.3,1,0.7,1,1.3
		c0,0.6-0.6,1.1-1.8,1.5c-1.2,0.4-2.6,0.8-4.2,1.1c-1.6,0.3-3.2,0.7-4.8,1c-1.6,0.3-2.9,0.6-3.7,1c-0.7,3.2-1.4,6.7-1.9,10.4
		c-0.5,3.7-0.8,7.1-0.8,10.4c0,0.4,0,0.9,0,1.6c0,0.7,0.1,1.4,0.1,2.1c0,0.7,0.1,1.3,0.2,1.8c0.1,0.5,0.3,0.8,0.5,0.8
		c0.7,0,2.3-1.1,4.6-3.3c2.3-2.2,4.8-5.4,7.4-9.5c0.3-0.3,0.7-0.5,1.2-0.5c0.5,0,0.9,0.2,1.2,0.5c0.3,0.3,0.5,0.7,0.5,1.2
		c0,0.3-0.2,0.7-0.5,1.2c-0.9,1.8-2.1,3.7-3.4,5.7c-1.3,2-2.7,3.7-4.1,5.3c-1.4,1.6-2.8,2.8-4.3,3.8c-1.4,1-2.7,1.5-4,1.5
		c-1.1,0-2.1-0.4-2.8-1.2c-0.7-0.8-1.3-1.8-1.7-2.9c-0.4-1.1-0.7-2.4-0.9-3.6c-0.2-1.3-0.3-2.4-0.3-3.4c0-1.3,0.1-2.7,0.2-4
		C223.3,87.1,223.4,85.9,223.5,84.8z"/>
	<path d="M246.9,84.8c0.2-2.2,0.5-4.4,0.8-6.5c0.3-2.1,0.7-4.3,1.2-6.4c-2.4,0.5-4.2,1-5.2,1.4c-1,0.4-1.8,0.6-2.4,0.6
		c-0.8,0-1.2-0.5-1.2-1.6c0-1,0.7-2,2-2.9c1.3-0.9,2.9-1.7,4.6-2.5c1.1-0.9,1.9-1.8,2.5-2.6c0.6-0.8,1.1-1.6,1.5-2.4
		c0.4-0.8,0.7-1.8,1-2.8c0.3-1,0.6-2.2,1-3.6c0.2-0.6,0.5-1.6,0.8-3c0.3-1.4,0.7-2.8,1.2-4.2c0.5-1.4,1.1-2.7,1.9-3.7
		c0.7-1.1,1.7-1.6,2.7-1.6c1.1,0,1.6,0.5,1.6,1.5c0,0.5-0.1,1.3-0.3,2.3c-0.2,1-0.5,2.2-0.9,3.8c-0.4,1.6-0.8,3.5-1.3,5.7
		c-0.5,2.3-1.1,4.9-1.7,8.1c0.7,0,1.3,0,1.9-0.1c0.6,0,1.2-0.1,1.8-0.1c0.7,0,1.6,0,2.7,0c1,0,2.1,0.1,3,0.2c1,0.1,1.8,0.3,2.5,0.6
		c0.7,0.3,1,0.7,1,1.3c0,0.6-0.6,1.1-1.8,1.5c-1.2,0.4-2.6,0.8-4.2,1.1c-1.6,0.3-3.2,0.7-4.8,1c-1.6,0.3-2.9,0.6-3.7,1
		c-0.7,3.2-1.4,6.7-1.9,10.4c-0.5,3.7-0.8,7.1-0.8,10.4c0,0.4,0,0.9,0,1.6c0,0.7,0.1,1.4,0.1,2.1c0,0.7,0.1,1.3,0.2,1.8
		c0.1,0.5,0.3,0.8,0.5,0.8c0.7,0,2.3-1.1,4.6-3.3c2.3-2.2,4.8-5.4,7.4-9.5c0.3-0.3,0.7-0.5,1.2-0.5c0.5,0,0.9,0.2,1.2,0.5
		c0.3,0.3,0.5,0.7,0.5,1.2c0,0.3-0.2,0.7-0.5,1.2c-0.9,1.8-2.1,3.7-3.4,5.7c-1.3,2-2.7,3.7-4.1,5.3c-1.4,1.6-2.8,2.8-4.3,3.8
		c-1.4,1-2.7,1.5-4,1.5c-1.2,0-2.1-0.4-2.8-1.2c-0.7-0.8-1.3-1.8-1.7-2.9c-0.4-1.1-0.7-2.4-0.9-3.6c-0.2-1.3-0.3-2.4-0.3-3.4
		c0-1.3,0.1-2.7,0.2-4C246.7,87.1,246.8,85.9,246.9,84.8z"/>
	<path d="M267.8,75c0.1-0.5,0.3-0.9,0.6-1.2c0.3-0.3,0.7-0.4,1-0.4c1.1,0,1.6,0.8,1.6,2.3c0,2-0.1,3.9-0.4,5.9c-0.3,2-0.4,4-0.4,6
		c0,0.7,0,1.5,0.1,2.1c0,0.7,0.2,1.4,0.4,2.1c1.7-1.3,3-2.8,4-4.4c1-1.6,1.8-3.3,2.5-5c0.7-1.8,1.3-3.5,1.8-5.4
		c0.5-1.8,1.1-3.7,1.9-5.6c0.7-1.1,1.6-1.7,2.7-1.7c1.1,0,1.9,0.5,2.2,1.5c0.3,1,0.5,2.3,0.5,4c0,1.8,0,3.6-0.2,5.5
		c-0.1,1.8-0.2,3.6-0.2,5.5v1.9c1.8-1,3.8-2,5.9-2.9c2.1-0.9,4.1-1.4,6-1.4c0.8,0,1.5,0.2,2.2,0.5c0.6,0.3,1,0.9,1,1.8
		c0,0.7-0.2,1.3-0.6,1.7c-0.4,0.4-0.8,0.6-1.2,0.6c-0.7,0-1.2-0.3-1.4-1h-0.6c-2,0.5-3.9,1.3-5.7,2.3c-1.9,1-3.6,2-5.3,3.2
		c0,1,0,2,0.1,3c0,1,0,1.9,0,2.9c0,4.3-0.2,8.4-0.7,12.6c-0.4,4.1-1.3,8.3-2.7,12.6c-0.5,1.5-1.1,3-1.8,4.5
		c-0.7,1.5-1.6,2.9-2.6,4.2c-1,1.2-2.2,2.3-3.5,3.1c-1.3,0.8-2.8,1.2-4.4,1.2c-1.8,0-3.3-0.4-4.6-1.2c-1.3-0.8-2.4-1.9-3.4-3.1
		c-0.9-1.3-1.7-2.7-2.1-4.4c-0.5-1.6-0.7-3.2-0.7-4.8c0-3.6,0.5-6.9,1.6-10c1.1-3.1,2.5-5.9,4.4-8.5c1.9-2.6,4-4.9,6.5-7.1
		c2.5-2.2,5.1-4.2,7.9-6c0-0.7,0-1.3,0-1.9s0-1.2,0.1-1.8c-0.1,0-0.2,0.2-0.5,0.7c-0.3,0.4-0.6,1-1,1.6c-0.4,0.6-0.8,1.2-1.2,1.7
		c-0.4,0.5-0.7,0.9-0.9,1.1l-3.7,2.6c-0.7,0.5-1.4,0.7-2.2,0.7c-0.9,0-1.7-0.2-2.3-0.7c-0.6-0.4-1-1-1.4-1.7
		c-0.3-0.7-0.6-1.5-0.7-2.4c-0.1-0.9-0.2-1.8-0.2-2.6c0-2.4,0.2-4.7,0.7-7S267.6,77.4,267.8,75z M279.7,108.5
		c0.2-2.6,0.3-5.2,0.3-7.8v-3.3c-4.3,3.4-7.7,7.2-10.3,11.4c-2.5,4.2-3.9,8.7-4.2,13.7c0,0.6,0.1,1.4,0.3,2.3
		c0.2,0.9,0.4,1.8,0.8,2.7c0.4,0.8,0.8,1.6,1.4,2.2c0.6,0.6,1.3,1,2.2,1c0.9,0,1.8-0.3,2.4-1c0.7-0.6,1.3-1.4,1.8-2.3
		s0.9-1.9,1.3-2.8c0.4-1,0.7-1.8,0.9-2.5c0.7-1.8,1.3-3.9,1.8-6.2C279,113.5,279.4,111,279.7,108.5z"/>
</g>
<g>
	<path fill="#AE2C2B" d="M30.8,164.2c0,1.4-0.3,2.4-1,3.1c-0.7,0.7-1.5,1-2.4,1c-1.7,0-3-0.8-3.9-2.5c-4.6-7.7-8.3-14.2-11.1-19.5
		c-2.8-5.3-4.2-10.5-4.2-15.6c0-3.9,0.9-7.9,2.8-12.1c1.9-4.2,4.9-9,9-14.4c1.7-2.3,4.2-4.9,7.4-7.7c3.2-2.8,6.8-5.5,10.7-8
		s8-4.5,12.1-6.1c4.2-1.6,8-2.4,11.6-2.4c4.9,0,8.8,1.9,11.7,5.7c2.8,3.8,4.3,10.4,4.3,20c0,5.4-0.5,10.6-1.4,15.6
		c-0.9,5-2.2,9.6-3.7,13.7l1.2-1.2c5.2-5.8,10.4-10.3,15.4-13.4c5-3.1,9.3-4.6,12.8-4.6c8.2,0,12.2,7.5,12.2,22.4
		c0,8-1.1,16.1-3.2,24.1c-2.2,8.1-4.1,16.1-5.8,23.9l-0.9,2.5c0.8-0.8,1.4-1.6,2-2.4c0.5-0.8,1.2-1.7,2-2.4c0.3-0.5,0.8-1.1,1.5-2
		c0.7-0.8,2-2.6,3.9-5.2c1.9-2.6,4.8-6.5,8.7-11.8c3.8-5.2,9.1-12.4,15.7-21.5c0.5-0.3,1-0.5,1.5-0.5c0.5,0,1,0,1.3,0
		c2.2,0,3.7,1.1,4.7,3.2c1,2.2,1.5,4.6,1.5,7.4c0,3.2-0.3,6.5-1,9.8c-0.7,3.3-1.2,6.3-1.5,8.9c-0.8,6.9-1.6,14.1-2.5,21.4
		c-0.9,7.3-1.4,14.7-1.4,22.1c0,4,0.2,7.9,0.6,11.8c0.4,3.8,1.1,7.6,2.2,11.3l3.7,1.2c1.4,1.2,2.1,2.5,2.1,3.7
		c0,0.9-0.4,1.7-1.2,2.4c-0.8,0.7-1.9,1-3.5,1c-0.8,0-2-0.3-3.7-0.9c-1.7-0.6-2.9-1.4-3.7-2.3c-2.2-2.6-3.6-6.6-4.4-11.8
		c-0.8-5.2-1.2-11.1-1.2-17.6c0-4.2,0.1-8.4,0.3-12.6c0.2-4.2,0.5-8.3,0.9-12.1c0.4-3.8,0.7-7.4,1-10.7c0.3-3.3,0.6-6,0.9-8.2
		l0.7-8.8c-2.8,4.2-6.1,9.1-10,14.9c-3.9,5.8-7.9,11.2-12,16.4s-7.8,9.6-11.2,13.3c-3.4,3.7-5.9,5.5-7.4,5.5c-1.9,0-3.3-0.9-4.4-2.7
		c-1.1-1.8-1.6-3.9-1.6-6.4c0-3.2,0.4-7.2,1.1-11.8s1.7-9.3,2.8-14.1c1.1-4.8,2.2-9.4,3.2-13.7c1.1-4.4,2-8,2.8-10.7
		c1.2-4.9,1.9-9.9,1.9-14.8c0-1.2-0.1-2.5-0.2-3.9c-0.2-1.4-0.4-2.7-0.7-3.9c-1.2,0-2.9,1-5.1,2.9c-2.2,1.9-4.4,4.1-6.6,6.6
		c-2.2,2.5-4.3,4.9-6.2,7.3c-1.9,2.4-3.2,4.1-3.8,5.2c-3.7,5.4-7.1,11-10.2,16.9c-3.1,5.9-6.2,11.7-9.4,17.6
		c-3.2,5.9-6.5,11.6-10,17.1c-3.5,5.5-7.6,10.6-12.2,15.2c-1.8,1.1-3.4,1.6-4.6,1.6c-4.3,0-6.7-2.5-7.2-7.4c0.2-2.8,0.8-5.7,2.1-8.8
		c1.2-3.1,2.6-6.2,4.2-9.4s3.2-6.2,4.9-9.1c1.7-2.9,3.1-5.6,4.4-8.1c2.8-5.7,5.1-10.4,7.1-14.2c1.9-3.8,3.7-7.4,5.3-11
		c1.6-3.5,3.2-7.4,4.6-11.4c1.5-4.1,3-9.1,4.7-15.1c1.1-3.7,1.9-7.4,2.5-11.2c0.6-3.8,0.9-7.4,0.9-10.7c0-4.3-0.6-7.8-1.7-10.5
		c-1.2-2.7-3.3-4-6.4-4c-2.2,0-4.7,0.7-7.5,2.2c-2.8,1.5-6.3,3.8-10.3,7.1c-7.2,6.3-12.5,12.4-15.8,18.1c-3.3,5.8-5,11.1-5,16.1
		c0,4.9,1.2,9.9,3.7,14.8C24.5,152.7,27.4,158.2,30.8,164.2z"/>
	<path fill="#AE2C2B" d="M192.5,166c0,0.5,0,0.8-0.1,1.2c-0.1,0.3-0.2,0.6-0.3,0.9c0.3,0,0.6,0,0.8-0.1c0.2-0.1,0.5-0.1,0.8-0.1
		c2.2,0,3.8,0.7,4.9,2.2c1.1,1.5,1.6,3.4,1.6,5.9c-0.5,2-1.1,4.5-2,7.6c-0.8,3.1-1.7,6.3-2.7,9.6c-0.9,3.3-1.7,6.6-2.4,9.8
		c-0.7,3.2-1,6.1-1,8.5c0,1.4,0.2,2.7,0.5,3.9c2.3-0.2,4.5-1.1,6.5-2.8c2-1.7,3.9-3.5,5.8-5.4c1.9-1.9,3.5-3.7,5.1-5.3
		c1.5-1.6,2.9-2.4,4.2-2.4c2.5,0,3.7,1.2,3.7,3.7c0,0.9-0.3,1.9-0.9,3c-0.8,0.8-2,2.2-3.8,4.4c-1.8,2.2-3.8,4.4-6.1,6.7
		c-2.3,2.3-4.9,4.4-7.7,6.2c-2.8,1.9-5.7,2.8-8.4,2.8c-2.2,0-3.9-0.7-5.3-2c-1.4-1.3-2.4-3-3.1-5c-0.7-2-1.2-4.1-1.4-6.2
		c-0.2-2.2-0.3-4.2-0.3-6c-0.9,0.9-2.1,2-3.6,3.2c-1.5,1.2-3,2.5-4.7,3.7c-1.7,1.2-3.4,2.3-5.1,3.1c-1.7,0.8-3.2,1.3-4.4,1.3
		c-4,0-7.2-1.3-9.7-3.9c-2.5-2.6-3.7-6.2-3.7-10.9c0-6.5,1-12.7,2.9-18.7s4.4-11.4,7.5-16.1c3.1-4.7,6.5-8.4,10.3-11.2
		c3.8-2.8,7.4-4.2,11-4.2c3.4,0,6.2,1.1,8.3,3.5c2.2,2.3,3.2,5,3.2,8.1V166z M162.9,202.5c3.2-1.9,5.9-4.2,7.9-6.9
		c2-2.8,3.8-5.7,5.5-8.8c1.7-3.1,3.4-6.1,5.1-9c1.7-2.9,3.8-5.5,6.2-7.6c-1.7-0.6-2.5-1.9-2.5-3.7l-0.2-1.6l-5.3-1.9
		c-2.8,1.9-5.2,4.2-7.3,6.9c-2.1,2.8-3.8,5.8-5.2,9.1c-1.4,3.3-2.4,6.7-3.1,10.3c-0.7,3.5-1,7-1,10.4V202.5z"/>
	<path fill="#AE2C2B" d="M219.7,193.7c-0.9,1.2-2,1.8-3.2,1.8c-1.1,0-2-0.4-2.7-1.2c-0.7-0.8-1-1.8-1-3v-1.2c1.9-4.2,4.3-8.5,7.4-13
		c3.1-4.5,6.2-8.9,9.5-13.1c3.2-4.2,6.2-8,9-11.6c2.8-3.5,4.8-6.5,6-8.8c0-1.5,0.9-2.6,2.7-3.2c1.8-0.6,3-0.9,3.6-0.9
		c1.9,0,3.4,0.6,4.5,1.9c1.2,1.2,1.7,3.1,1.7,5.5c-2.2,7.7-3.2,15.3-3.2,22.9c0,4,0.4,7.9,1.2,11.6c0.8,3.7,1.7,7.5,2.8,11.6
		c4.3-2.2,8.6-4.2,12.8-6c4.2-1.9,8.4-3.7,12.6-5.5c0.9-0.3,1.6-0.5,2.1-0.5c1.2,0,2.2,0.4,2.8,1.2c0.6,0.8,0.9,1.6,0.9,2.5
		c0,1.1-1.1,2.4-3.2,3.9c-2.2,1.5-4.7,3.1-7.7,4.7c-3,1.6-6.2,3.3-9.6,5c-3.4,1.7-6.3,3.3-8.8,4.9c0,4.9-0.7,9.1-2.2,12.6
		c-1.5,3.5-3.3,6.3-5.5,8.4c-2.2,2.2-4.7,3.7-7.3,4.6c-2.6,0.9-5.1,1.4-7.4,1.4c-3.5,0-6.5-1-8.8-2.9c-2.3-1.9-3.5-4.4-3.5-7.5
		c0-1.9,0.7-3.8,2.2-5.8c1.5-2,3.2-3.9,5.3-5.8c2.1-1.9,4.2-3.5,6.2-4.9c2.1-1.4,3.8-2.5,5.2-3.2c-0.9-5.5-1.8-10.8-2.5-15.7
		c-0.8-4.9-1.2-9.8-1.2-14.6c-3.7,3.7-7.4,7.5-11.1,11.3C225.5,185.1,222.4,189.3,219.7,193.7z"/>
	<path fill="#AE2C2B" d="M286.5,185.7c0.5-5.1,1-10,1.7-14.9c0.7-4.9,1.6-9.7,2.7-14.7c-5.5,1.2-9.5,2.3-11.9,3.2
		c-2.4,0.9-4.2,1.4-5.4,1.4c-1.8,0-2.8-1.2-2.8-3.7c0-2.3,1.5-4.5,4.5-6.6c3-2.1,6.5-4,10.5-5.7c2.5-2.2,4.4-4.1,5.8-5.9
		c1.4-1.8,2.5-3.6,3.5-5.5s1.7-4,2.3-6.4c0.6-2.3,1.4-5.1,2.3-8.3c0.5-1.4,1-3.7,1.7-6.8c0.7-3.2,1.6-6.4,2.8-9.6
		c1.2-3.2,2.6-6.1,4.3-8.6c1.7-2.5,3.8-3.7,6.2-3.7s3.7,1.2,3.7,3.5c0,1.2-0.2,3-0.7,5.2c-0.5,2.2-1.1,5.1-2,8.7
		c-0.8,3.5-1.8,7.9-3,13.1c-1.2,5.2-2.4,11.3-3.8,18.4c1.5,0,3,0,4.4-0.1c1.4-0.1,2.8-0.1,4.2-0.1c1.7,0,3.7,0,6.1,0
		s4.7,0.1,6.9,0.3c2.2,0.2,4.1,0.7,5.7,1.3c1.5,0.6,2.3,1.6,2.3,3c0,1.4-1.3,2.5-4,3.5c-2.7,0.9-5.9,1.8-9.5,2.5
		c-3.6,0.8-7.3,1.5-11,2.2c-3.7,0.7-6.5,1.4-8.5,2.2c-1.7,7.4-3.2,15.3-4.4,23.7c-1.2,8.4-1.9,16.3-1.9,23.7c0,0.9,0,2.2,0.1,3.7
		c0.1,1.5,0.2,3.1,0.2,4.7c0.1,1.6,0.2,3,0.5,4.2c0.2,1.2,0.6,1.7,1,1.7c1.7,0,5.2-2.5,10.5-7.5c5.3-5,11-12.2,17-21.6
		c0.8-0.8,1.7-1.2,2.8-1.2c1.1,0,2,0.3,2.8,1c0.8,0.7,1.2,1.6,1.2,2.7c0,0.8-0.4,1.7-1.2,2.8c-2.2,4.2-4.7,8.5-7.7,12.9
		c-3,4.5-6.1,8.5-9.4,12c-3.2,3.5-6.5,6.5-9.7,8.8c-3.2,2.3-6.2,3.5-9,3.5c-2.6,0-4.7-0.9-6.4-2.8c-1.6-1.9-2.9-4.1-3.9-6.7
		c-1-2.6-1.7-5.4-2.1-8.3c-0.4-2.9-0.6-5.5-0.6-7.8c0-3.1,0.1-6.1,0.3-9C285.9,191,286.2,188.3,286.5,185.7z"/>
	<path fill="#AE2C2B" d="M337.8,184.5c1.1-7.4,2.2-14.8,3.2-22.3c1.1-7.5,2.4-14.9,3.8-22.3c1.5-7.4,3.2-14.7,5.3-21.8
		s4.7-14.1,7.7-20.9c1.5-3.4,3.4-6.9,5.5-10.6c2.2-3.7,4.6-7,7.4-10c2.8-3,5.8-5.5,9.1-7.5c3.3-2,6.9-3,10.7-3
		c4.9,0,9.1,1.8,12.6,5.4c3.5,3.6,5.2,8.4,5.2,14.2c0,8.6-1.6,16.7-4.7,24.1c-3.2,7.5-7.2,14.4-12.1,20.9
		c-4.9,6.5-10.4,12.5-16.5,18c-6.1,5.5-12.1,10.8-17.9,15.7l-2.1,1.6c-0.8,4.5-1.5,8.9-2.1,13.4c-0.6,4.5-1.2,8.9-1.6,13.4
		c0.8-0.9,1.8-2.2,3.1-3.7c1.3-1.5,2.7-3,4.3-4.4c1.5-1.4,3.1-2.6,4.7-3.6c1.6-1,3-1.5,4.3-1.5c0.8,0,1.5,0.1,2.1,0.2
		c3.5,1.5,5.9,3.6,7.1,6.1c1.1,2.5,1.8,5.4,2.1,8.6c0.2,3.2,0.3,6.4,0.3,9.8c0,3.4,0.5,6.8,1.4,10.2c0.5,0,0.8,0.1,0.9,0.2
		c1.2-1.1,2.7-2.3,4.5-3.7c1.8-1.4,3.3-2.1,4.5-2.1c2.5,0,3.7,1.2,3.7,3.7c0,0.8-0.5,1.8-1.4,3c-0.9,1.2-2.1,2.5-3.5,3.7
		c-1.4,1.2-2.9,2.3-4.5,3.1c-1.6,0.8-3.1,1.3-4.5,1.3c-2.8,0-4.9-1.4-6.5-4.3c-1.5-2.8-2.7-6.2-3.5-9.9c-0.8-3.8-1.3-7.4-1.6-11
		c-0.3-3.5-0.7-6-1.2-7.4c-2.6,2.2-4.8,4.6-6.5,7.3c-1.7,2.7-3.2,5.5-4.6,8.3c-1.4,2.9-2.8,5.7-4.3,8.7c-1.5,2.9-3.3,5.6-5.4,8.1
		c-1.4,0.9-2.8,1.4-4.2,1.4c-1.5,0-2.8-0.5-3.8-1.5c-1-1-1.8-2.3-2.3-3.9c-0.5-1.6-0.9-3.3-1-5.2c-0.2-1.9-0.2-3.7-0.2-5.5
		c0-4.2,0.3-8.3,0.8-12.6C336.8,191.9,337.3,188,337.8,184.5z M365.8,119.6c-1.7,5.4-3.2,10.7-4.5,15.9c-1.3,5.2-2.5,10.5-3.6,15.9
		l5.1-4.9c4.2-4.2,8.2-8.5,12.1-13c3.9-4.5,7.4-9.3,10.4-14.2c3-4.9,5.4-10.1,7.3-15.6c1.9-5.5,2.8-11.4,2.8-17.7
		c0-1.5-0.5-2.8-1.5-3.7c-1-0.9-2.3-1.4-3.8-1.4c-2.9,0-5.7,1.4-8.2,4.2c-2.5,2.8-4.8,6.1-6.8,10c-2,3.9-3.8,8.1-5.3,12.6
		C368.1,112.3,366.8,116.2,365.8,119.6z"/>
	<path fill="#AE2C2B" d="M436.2,169.7c-1.5,3.2-3.2,6.5-5,9.7s-3.8,6.2-6,9c-2.2,2.8-4.7,5.2-7.4,7.3c-2.7,2.1-5.7,3.6-9.1,4.5
		c0,3.2,0.5,6.4,1.4,9.6c0.9,3.2,2.8,4.7,5.8,4.7c0.8,0,1.6-0.1,2.4-0.2c0.8-0.2,1.8-0.6,2.9-1.4c0.9-0.5,2.3-1.3,4-2.5
		c1.8-1.2,3.7-2.7,5.8-4.3c2.1-1.6,4.1-3.4,6-5.3c1.9-1.9,3.3-3.9,4.3-5.9c0.5-1.1,1.2-1.6,2.1-1.6c1.1,0,2.1,0.5,3,1.4
		c0.9,0.9,1.4,2,1.4,3.2c0,1.1-0.9,2.8-2.8,5.1c-1.8,2.3-4,4.7-6.3,7.2c-2.4,2.5-4.9,4.8-7.4,6.9c-2.5,2.2-4.5,3.5-5.9,4.2
		c-0.5,0.2-1.8,0.8-4,2.1c-2.2,1.2-4.1,1.9-5.7,1.9c-3.4,0-6.3-0.7-8.8-2.1c-2.5-1.4-4.5-3.2-6.1-5.5s-2.8-5-3.6-8
		c-0.8-3-1.2-6.1-1.2-9.4c-0.9-0.5-1.4-1.3-1.4-2.5c0-1.1,0.4-2,1.2-2.8c0-1.9,0.1-3.7,0.2-5.7c0.2-1.9,0.5-3.9,1.2-5.9
		c0.9-3.2,2.2-7.1,3.8-11.6c1.6-4.5,3.7-8.7,6.1-12.8c2.5-4.1,5.4-7.5,8.8-10.4c3.4-2.8,7.2-4.3,11.6-4.3c4.3,0,7.2,1.4,8.8,4.3
		c1.5,2.9,2.3,6.1,2.3,9.8c0,2.2-0.2,4.3-0.6,6.3C437.6,166.8,437,168.5,436.2,169.7z M425.1,160c-1.5,1.2-3.1,3-4.6,5.4
		c-1.5,2.4-2.9,5-4.2,7.7c-1.2,2.8-2.4,5.6-3.5,8.6c-1.1,2.9-1.9,5.6-2.5,8.1c1.9-1.7,4.2-4.9,6.9-9.7c0.6-1.1,1.4-2.4,2.3-4
		c0.9-1.6,1.8-3.4,2.5-5.3c0.8-1.9,1.5-3.8,2.1-5.7C424.8,163.2,425.1,161.6,425.1,160z"/>
	<path fill="#AE2C2B" d="M485.4,166c0,0.5,0,0.8-0.1,1.2c-0.1,0.3-0.2,0.6-0.3,0.9c0.3,0,0.6,0,0.8-0.1c0.2-0.1,0.5-0.1,0.8-0.1
		c2.2,0,3.8,0.7,4.9,2.2c1.1,1.5,1.6,3.4,1.6,5.9c-0.5,2-1.1,4.5-2,7.6c-0.8,3.1-1.7,6.3-2.7,9.6c-0.9,3.3-1.7,6.6-2.4,9.8
		c-0.7,3.2-1,6.1-1,8.5c0,1.4,0.2,2.7,0.5,3.9c2.3-0.2,4.5-1.1,6.5-2.8c2-1.7,3.9-3.5,5.8-5.4c1.9-1.9,3.5-3.7,5.1-5.3
		c1.5-1.6,2.9-2.4,4.2-2.4c2.5,0,3.7,1.2,3.7,3.7c0,0.9-0.3,1.9-0.9,3c-0.8,0.8-2,2.2-3.8,4.4c-1.8,2.2-3.8,4.4-6.1,6.7
		c-2.3,2.3-4.9,4.4-7.7,6.2c-2.8,1.9-5.7,2.8-8.4,2.8c-2.2,0-3.9-0.7-5.3-2c-1.4-1.3-2.4-3-3.1-5c-0.7-2-1.2-4.1-1.4-6.2
		c-0.2-2.2-0.3-4.2-0.3-6c-0.9,0.9-2.1,2-3.6,3.2c-1.5,1.2-3,2.5-4.7,3.7c-1.7,1.2-3.4,2.3-5.1,3.1c-1.7,0.8-3.2,1.3-4.4,1.3
		c-4,0-7.2-1.3-9.7-3.9c-2.5-2.6-3.7-6.2-3.7-10.9c0-6.5,1-12.7,2.9-18.7c1.9-6,4.4-11.4,7.5-16.1c3.1-4.7,6.5-8.4,10.3-11.2
		c3.8-2.8,7.4-4.2,11-4.2c3.4,0,6.2,1.1,8.3,3.5c2.2,2.3,3.2,5,3.2,8.1V166z M455.9,202.5c3.2-1.9,5.9-4.2,7.9-6.9
		c2-2.8,3.8-5.7,5.5-8.8c1.7-3.1,3.4-6.1,5.1-9c1.7-2.9,3.8-5.5,6.2-7.6c-1.7-0.6-2.5-1.9-2.5-3.7l-0.2-1.6l-5.3-1.9
		c-2.8,1.9-5.2,4.2-7.3,6.9c-2.1,2.8-3.8,5.8-5.2,9.1c-1.4,3.3-2.4,6.7-3.1,10.3c-0.7,3.5-1,7-1,10.4V202.5z"/>
	<path fill="#AE2C2B" d="M537.6,161.2c1.7,0.3,3.2,0.9,4.4,1.8l0.9-2.1c1.5-7.1,3.2-14.2,5-21.3c1.8-7.1,3.7-14.1,5.7-21
		c0.6-2,1.4-4.9,2.4-8.6c1-3.7,2.2-7.3,3.7-10.7c1.5-3.5,3.3-6.5,5.4-9.1c2.2-2.6,4.7-3.9,7.6-3.9c2.9,0,5,0.9,6.1,2.8
		c1.2,1.8,1.7,4.3,1.7,7.4c0,2.3-0.3,4.8-0.8,7.4c-0.5,2.6-1.1,5.2-1.8,7.8c-0.7,2.6-1.5,5.2-2.3,7.6c-0.8,2.5-1.6,4.7-2.2,6.7
		c-2.2,6.5-4.7,13.2-7.6,20.2c-2.9,7-6.4,14-10.4,20.9c-1.1,5.8-2.1,11.7-3.1,17.4c-1,5.8-2,11.6-2.9,17.4v-0.5
		c-0.2,1.5-0.3,3.1-0.5,4.6c-0.2,1.5-0.2,3.1-0.2,4.6c0,4,0.6,7.3,1.9,9.9c1.7,0,3.7-0.9,6-2.8c2.3-1.8,4.6-4,6.9-6.5
		c2.3-2.5,4.4-4.9,6.4-7.2c1.9-2.3,3.3-3.9,4.3-4.9c1.1-0.8,2-1.2,2.8-1.2c2.5,0,3.7,1.2,3.7,3.7c0,0.9-0.3,1.9-0.9,3
		c-2.6,2.8-5.2,5.6-7.7,8.5c-2.5,2.9-5,5.6-7.5,8.1c-2.5,2.5-4.9,4.5-7.2,6.1c-2.3,1.6-4.6,2.4-6.9,2.4c-2.2,0-4-0.7-5.5-2.2
		c-1.5-1.5-2.8-3.5-3.7-6c-0.9-2.5-1.6-5.5-2-9c-0.4-3.5-0.6-7.2-0.6-11.2c0-1.5,0-3,0-4.4s0.1-2.8,0.2-4.2
		c-1.8,2.5-4.1,5.3-6.7,8.4c-2.6,3.2-5.3,6.2-8,9c-2.7,2.8-5.4,5.2-8,7.2c-2.6,1.9-4.9,2.9-6.9,2.9h-1.1c-2.6-1.4-4.4-2.4-5.4-3
		c-1-0.6-1.7-2-2-4.2c0-5.7,1-11.7,3.1-17.9c2.1-6.2,4.8-11.9,8.2-17c3.4-5.1,7.2-9.3,11.4-12.6c4.2-3.3,8.6-5,13-5H537.6z
		 M512.2,205.5c4.8-4.9,9.4-10.5,13.7-16.6c4.4-6.2,8.6-12.6,12.6-19.4c-0.5-0.2-1.1-0.2-1.9-0.2h-0.2c-7.4,3.4-12.9,8.4-16.4,14.9
		C516.5,190.7,513.9,197.8,512.2,205.5z M549.7,199.8c-0.2,0.2-0.2,0.5-0.2,0.9C549.6,200.5,549.7,200.2,549.7,199.8z M570.2,112.2
		c0-0.2,0-0.3,0.1-0.3c0.1-0.1,0.1-0.2,0.1-0.3C570.3,111.7,570.2,111.9,570.2,112.2v0.2V112.2z"/>
</g>
</svg>
