<svg version="1.2" baseProfile="tiny" xmlns="http://www.w3.org/2000/svg" viewBox="0 0 600 262.5" overflow="visible" xml:space="preserve"><path d="M138.5 49.7c0-.7.2-1.2.6-1.6.4-.4.8-.6 1.3-.6.7 0 1.2.5 1.4 1.4l.1 3.4a97 97 0 0 1 9.1-9.7c1.7-1.3 3.4-2.4 5.2-3.3 1.8-.8 3.6-1.3 5.5-1.3a15.3 15.3 0 0 1 11.9 6.6c1.6 2.7 2.4 5.6 2.4 8.8a30 30 0 0 1-1.1 7.8 43.5 43.5 0 0 1-10.1 17.9 17.6 17.6 0 0 1-4.9 2.9c-2 .9-4 1.3-6 1.3a11 11 0 0 1-4-.8 8.1 8.1 0 0 1-3.5-2.7c.1-.6.3-1.1.6-1.5.3-.4.7-.6 1.2-.6s1 .3 1.4.9l1.9.5 1.9.2c2 0 3.8-.6 5.5-1.7a22.7 22.7 0 0 0 8.2-9.4c1-1.9 1.7-3.6 2.3-5.3a29 29 0 0 0 1.3-8.2c0-3-.6-5.5-1.9-7.4a6.2 6.2 0 0 0-5.4-2.9 12 12 0 0 0-5.6 1.5c-1.9 1-3.8 2.3-5.5 3.9a44.2 44.2 0 0 0-9.2 11.7l.8 8.2a90.4 90.4 0 0 1-.4 17.3 35 35 0 0 1-2.1 8.6c-.9 2.5-2.1 4.6-3.5 6.1a6.5 6.5 0 0 1-5.2 2.3c-2.7 0-4.5-1.1-5.5-3.2-1-2.2-1.5-5.2-1.5-9a54.7 54.7 0 0 1 1-10 95.3 95.3 0 0 1 5.1-12.5l3.2-6.1 3.5-6.4-.1-3.7c.2-.8.2-2.1.1-3.4zm.1 35.2.2-3.6.2-3.1.2-2.9.1-3.2-.1-1.4-.1-1.5-2.8 6a85.2 85.2 0 0 0-4.7 12.9c-.5 2.2-.8 4.5-.8 6.7 0 1.6.2 2.8.5 3.5.3.7.7 1.1 1.2 1.1s1-.4 1.7-1.2c.7-.8 1.3-1.9 1.9-3.2.6-1.3 1.1-2.9 1.5-4.6.6-1.8.9-3.6 1-5.5zM166.1 93.6l-.2.1-.3.1c-.5 0-1-.2-1.3-.6-.3-.4-.5-.8-.5-1.3a92 92 0 0 0 3.1-6.2l3-6.3 2.9-6.1 2.2-4.2c.5-.5 1.2-.8 1.9-.8.6 0 1.3.2 2 .6l3.4 4.7 2.3 3.6a12.2 12.2 0 0 1 1.7 6.6c0 1.5-.2 3.1-.6 5l-1.4 7a29 29 0 0 0 4.8-1.4l4.7-1.8.8-.2c.5 0 .9.2 1.2.5.3.3.4.7.4 1.1 0 .5-.5 1.2-1.5 1.9l-3.6 2.2-4.3 2.1-3.5 1.5h-1c-1.2 0-2.2-.6-2.9-1.8a6.8 6.8 0 0 1-1.1-3.3c0-1.1.2-2.3.5-3.4s.6-2.3.7-3.4l.3-4.1a17 17 0 0 0-3.1-10.2l-1.2 2.1-1.8 3.4a52 52 0 0 1-2.1 4l-2.2 3.9a34 34 0 0 1-3.3 4.7z"/><path d="m212.6 77.8-2.2 4.3-2.6 4c-1 1.2-2.1 2.3-3.2 3.2-1.2.9-2.5 1.6-4 2 0 1.4.2 2.8.6 4.2.4 1.4 1.2 2.1 2.5 2.1l1.1-.1 1.3-.6 1.8-1.1 2.5-1.9 2.6-2.3c.8-.8 1.5-1.7 1.9-2.6.2-.5.5-.7.9-.7.5 0 .9.2 1.3.6.4.4.6.9.6 1.4 0 .5-.4 1.2-1.2 2.2-.8 1-1.7 2.1-2.8 3.1a30 30 0 0 1-5.8 4.8l-1.8.9a6 6 0 0 1-2.5.8 7.8 7.8 0 0 1-6.5-3.3 12.5 12.5 0 0 1-2.1-7.6c-.4-.2-.6-.6-.6-1.1 0-.5.2-.9.5-1.2l.1-2.5c.1-.8.2-1.7.5-2.6l1.7-5.1c.7-2 1.6-3.8 2.7-5.6 1.1-1.8 2.4-3.3 3.8-4.6a8 8 0 0 1 5.1-1.9c1.9 0 3.2.6 3.8 1.9.7 1.3 1 2.7 1 4.3a13.3 13.3 0 0 1-1 5zm-4.9-4.3a18.3 18.3 0 0 0-3.8 5.8l-1.5 3.7-1.1 3.5c.8-.7 1.8-2.2 3-4.3l1-1.8 1.1-2.3.9-2.5c.3-.7.4-1.4.4-2.1zM223.5 84.8a128.3 128.3 0 0 1 2-12.9c-2.4.5-4.2 1-5.2 1.4a7 7 0 0 1-2.4.6c-.8 0-1.2-.5-1.2-1.6 0-1 .7-2 2-2.9s2.9-1.7 4.6-2.5a14.8 14.8 0 0 0 4-5c.4-.8.7-1.8 1-2.8l1-3.6.8-3 1.2-4.2c.5-1.4 1.1-2.7 1.9-3.7a3.2 3.2 0 0 1 2.7-1.6c1.1 0 1.6.5 1.6 1.5l-.3 2.3a89 89 0 0 1-.9 3.8l-1.3 5.7-1.7 8.1 1.9-.1 1.8-.1h2.7l3 .2c1 .1 1.8.3 2.5.6s1 .7 1 1.3c0 .6-.6 1.1-1.8 1.5-1.2.4-2.6.8-4.2 1.1l-4.8 1c-1.6.3-2.9.6-3.7 1a130 130 0 0 0-2.7 20.8v1.6l.1 2.1.2 1.8c.1.5.3.8.5.8.7 0 2.3-1.1 4.6-3.3 2.3-2.2 4.8-5.4 7.4-9.5.3-.3.7-.5 1.2-.5s.9.2 1.2.5c.3.3.5.7.5 1.2a60.8 60.8 0 0 1-8 12.2 21.3 21.3 0 0 1-4.3 3.8 6.9 6.9 0 0 1-4 1.5c-1.1 0-2.1-.4-2.8-1.2a9.2 9.2 0 0 1-1.7-2.9 21 21 0 0 1-1.2-7l.2-4c.4-1.7.5-2.9.6-4z"/><path d="M246.9 84.8a128.3 128.3 0 0 1 2-12.9c-2.4.5-4.2 1-5.2 1.4a7 7 0 0 1-2.4.6c-.8 0-1.2-.5-1.2-1.6 0-1 .7-2 2-2.9 1.3-.9 2.9-1.7 4.6-2.5a14.8 14.8 0 0 0 4-5c.4-.8.7-1.8 1-2.8l1-3.6.8-3 1.2-4.2c.5-1.4 1.1-2.7 1.9-3.7a3.2 3.2 0 0 1 2.7-1.6c1.1 0 1.6.5 1.6 1.5l-.3 2.3a89 89 0 0 1-.9 3.8l-1.3 5.7-1.7 8.1 1.9-.1 1.8-.1h2.7l3 .2c1 .1 1.8.3 2.5.6s1 .7 1 1.3c0 .6-.6 1.1-1.8 1.5-1.2.4-2.6.8-4.2 1.1l-4.8 1c-1.6.3-2.9.6-3.7 1a130 130 0 0 0-2.7 20.8v1.6l.1 2.1.2 1.8c.1.5.3.8.5.8.7 0 2.3-1.1 4.6-3.3 2.3-2.2 4.8-5.4 7.4-9.5.3-.3.7-.5 1.2-.5s.9.2 1.2.5c.3.3.5.7.5 1.2a60.8 60.8 0 0 1-8 12.2 21.3 21.3 0 0 1-4.3 3.8 6.9 6.9 0 0 1-4 1.5c-1.2 0-2.1-.4-2.8-1.2a9.2 9.2 0 0 1-1.7-2.9 21 21 0 0 1-1.2-7l.2-4c.4-1.7.5-2.9.6-4z"/><path d="M267.8 75c.1-.5.3-.9.6-1.2.3-.3.7-.4 1-.4 1.1 0 1.6.8 1.6 2.3 0 2-.1 3.9-.4 5.9-.3 2-.4 4-.4 6l.1 2.1c0 .7.2 1.4.4 2.1 1.7-1.3 3-2.8 4-4.4A33.3 33.3 0 0 0 279 77c.5-1.8 1.1-3.7 1.9-5.6.7-1.1 1.6-1.7 2.7-1.7s1.9.5 2.2 1.5c.3 1 .5 2.3.5 4 0 1.8 0 3.6-.2 5.5l-.2 5.5v1.9c1.8-1 3.8-2 5.9-2.9 2.1-.9 4.1-1.4 6-1.4.8 0 1.5.2 2.2.5.6.3 1 .9 1 1.8 0 .7-.2 1.3-.6 1.7-.4.4-.8.6-1.2.6-.7 0-1.2-.3-1.4-1h-.6a46.6 46.6 0 0 0-11 5.5l.1 3v2.9c0 4.3-.2 8.4-.7 12.6a59.3 59.3 0 0 1-4.5 17.1c-.7 1.5-1.6 2.9-2.6 4.2-1 1.2-2.2 2.3-3.5 3.1a8.3 8.3 0 0 1-4.4 1.2c-1.8 0-3.3-.4-4.6-1.2-1.3-.8-2.4-1.9-3.4-3.1a16 16 0 0 1-2.8-9.2 32.7 32.7 0 0 1 6-18.5c1.9-2.6 4-4.9 6.5-7.1 2.5-2.2 5.1-4.2 7.9-6V90l.1-1.8-.5.7-1 1.6a25 25 0 0 1-1.2 1.7l-.9 1.1-3.7 2.6c-.7.5-1.4.7-2.2.7-.9 0-1.7-.2-2.3-.7-.6-.4-1-1-1.4-1.7-.3-.7-.6-1.5-.7-2.4l-.2-2.6c0-2.4.2-4.7.7-7s.7-4.8.9-7.2zm11.9 33.5.3-7.8v-3.3a44 44 0 0 0-10.3 11.4 29.7 29.7 0 0 0-4.2 13.7l.3 2.3c.2.9.4 1.8.8 2.7.4.8.8 1.6 1.4 2.2a3 3 0 0 0 2.2 1c.9 0 1.8-.3 2.4-1 .7-.6 1.3-1.4 1.8-2.3l1.3-2.8.9-2.5a60.2 60.2 0 0 0 3.1-13.6z"/><g fill="#AE2C2B"><path d="M30.8 164.2c0 1.4-.3 2.4-1 3.1-.7.7-1.5 1-2.4 1-1.7 0-3-.8-3.9-2.5-4.6-7.7-8.3-14.2-11.1-19.5a29.1 29.1 0 0 1-1.4-27.7c1.9-4.2 4.9-9 9-14.4 1.7-2.3 4.2-4.9 7.4-7.7s6.8-5.5 10.7-8 8-4.5 12.1-6.1c4.2-1.6 8-2.4 11.6-2.4a14 14 0 0 1 11.7 5.7c2.8 3.8 4.3 10.4 4.3 20a87.9 87.9 0 0 1-5.1 29.3l1.2-1.2a72.9 72.9 0 0 1 15.4-13.4c5-3.1 9.3-4.6 12.8-4.6 8.2 0 12.2 7.5 12.2 22.4a95 95 0 0 1-3.2 24.1c-2.2 8.1-4.1 16.1-5.8 23.9l-.9 2.5c.8-.8 1.4-1.6 2-2.4a11 11 0 0 1 2-2.4l1.5-2 3.9-5.2 8.7-11.8 15.7-21.5a3 3 0 0 1 1.5-.5h1.3c2.2 0 3.7 1.1 4.7 3.2 1 2.2 1.5 4.6 1.5 7.4 0 3.2-.3 6.5-1 9.8-.7 3.3-1.2 6.3-1.5 8.9l-2.5 21.4a180.9 180.9 0 0 0-.8 33.9c.4 3.8 1.1 7.6 2.2 11.3l3.7 1.2c1.4 1.2 2.1 2.5 2.1 3.7 0 .9-.4 1.7-1.2 2.4-.8.7-1.9 1-3.5 1-.8 0-2-.3-3.7-.9a8.7 8.7 0 0 1-3.7-2.3 24 24 0 0 1-4.4-11.8c-.8-5.2-1.2-11.1-1.2-17.6a264.9 264.9 0 0 1 1.2-24.7l1-10.7.9-8.2.7-8.8-10 14.9a267 267 0 0 1-23.2 29.7c-3.4 3.7-5.9 5.5-7.4 5.5-1.9 0-3.3-.9-4.4-2.7a12 12 0 0 1-1.6-6.4c0-3.2.4-7.2 1.1-11.8s1.7-9.3 2.8-14.1l3.2-13.7 2.8-10.7c1.2-4.9 1.9-9.9 1.9-14.8l-.2-3.9-.7-3.9c-1.2 0-2.9 1-5.1 2.9a68.4 68.4 0 0 0-6.6 6.6 186.5 186.5 0 0 0-10 12.5c-3.7 5.4-7.1 11-10.2 16.9l-9.4 17.6c-3.2 5.9-6.5 11.6-10 17.1A89.4 89.4 0 0 1 36.3 219a9.4 9.4 0 0 1-4.6 1.6c-4.3 0-6.7-2.5-7.2-7.4.2-2.8.8-5.7 2.1-8.8a109 109 0 0 1 9.1-18.5c1.7-2.9 3.1-5.6 4.4-8.1l7.1-14.2a270.8 270.8 0 0 0 9.9-22.4 221.4 221.4 0 0 0 7.2-26.3c.6-3.8.9-7.4.9-10.7a28 28 0 0 0-1.7-10.5c-1.2-2.7-3.3-4-6.4-4-2.2 0-4.7.7-7.5 2.2a75.5 75.5 0 0 0-26.1 25.2c-3.3 5.8-5 11.1-5 16.1 0 4.9 1.2 9.9 3.7 14.8 2.3 4.7 5.2 10.2 8.6 16.2zM192.5 166l-.1 1.2-.3.9.8-.1.8-.1c2.2 0 3.8.7 4.9 2.2a9.6 9.6 0 0 1 1.6 5.9l-2 7.6-2.7 9.6a199 199 0 0 0-2.4 9.8c-.7 3.2-1 6.1-1 8.5 0 1.4.2 2.7.5 3.9 2.3-.2 4.5-1.1 6.5-2.8 2-1.7 3.9-3.5 5.8-5.4l5.1-5.3c1.5-1.6 2.9-2.4 4.2-2.4 2.5 0 3.7 1.2 3.7 3.7 0 .9-.3 1.9-.9 3l-3.8 4.4a90.5 90.5 0 0 1-6.1 6.7 46.5 46.5 0 0 1-7.7 6.2 15 15 0 0 1-8.4 2.8c-2.2 0-3.9-.7-5.3-2s-2.4-3-3.1-5c-.7-2-1.2-4.1-1.4-6.2l-.3-6-3.6 3.2c-1.5 1.2-3 2.5-4.7 3.7a34.8 34.8 0 0 1-5.1 3.1c-1.7.8-3.2 1.3-4.4 1.3-4 0-7.2-1.3-9.7-3.9-2.5-2.6-3.7-6.2-3.7-10.9a64.5 64.5 0 0 1 10.4-34.8 43 43 0 0 1 10.3-11.2c3.8-2.8 7.4-4.2 11-4.2 3.4 0 6.2 1.1 8.3 3.5 2.2 2.3 3.2 5 3.2 8.1v1zm-29.6 36.5c3.2-1.9 5.9-4.2 7.9-6.9a87 87 0 0 0 5.5-8.8l5.1-9c1.7-2.9 3.8-5.5 6.2-7.6-1.7-.6-2.5-1.9-2.5-3.7l-.2-1.6-5.3-1.9a31.9 31.9 0 0 0-7.3 6.9 51.1 51.1 0 0 0-9.3 29.8v2.8z"/><path d="M219.7 193.7c-.9 1.2-2 1.8-3.2 1.8-1.1 0-2-.4-2.7-1.2-.7-.8-1-1.8-1-3v-1.2c1.9-4.2 4.3-8.5 7.4-13 3.1-4.5 6.2-8.9 9.5-13.1l9-11.6c2.8-3.5 4.8-6.5 6-8.8 0-1.5.9-2.6 2.7-3.2 1.8-.6 3-.9 3.6-.9 1.9 0 3.4.6 4.5 1.9 1.2 1.2 1.7 3.1 1.7 5.5a82.7 82.7 0 0 0-3.2 22.9c0 4 .4 7.9 1.2 11.6.8 3.7 1.7 7.5 2.8 11.6 4.3-2.2 8.6-4.2 12.8-6l12.6-5.5c.9-.3 1.6-.5 2.1-.5 1.2 0 2.2.4 2.8 1.2.6.8.9 1.6.9 2.5 0 1.1-1.1 2.4-3.2 3.9a81.6 81.6 0 0 1-7.7 4.7l-9.6 5a96.2 96.2 0 0 0-8.8 4.9 32 32 0 0 1-2.2 12.6 25 25 0 0 1-5.5 8.4 19.1 19.1 0 0 1-7.3 4.6 23 23 0 0 1-7.4 1.4c-3.5 0-6.5-1-8.8-2.9a9.3 9.3 0 0 1-1.3-13.3c1.5-2 3.2-3.9 5.3-5.8a63 63 0 0 1 11.4-8.1l-2.5-15.7c-.8-4.9-1.2-9.8-1.2-14.6l-11.1 11.3a75 75 0 0 0-9.6 12.6z"/><path d="M286.5 185.7a198.4 198.4 0 0 1 4.4-29.6 94.9 94.9 0 0 0-11.9 3.2c-2.4.9-4.2 1.4-5.4 1.4-1.8 0-2.8-1.2-2.8-3.7 0-2.3 1.5-4.5 4.5-6.6 3-2.1 6.5-4 10.5-5.7a36.3 36.3 0 0 0 9.3-11.4c1-1.9 1.7-4 2.3-6.4l2.3-8.3c.5-1.4 1-3.7 1.7-6.8.7-3.2 1.6-6.4 2.8-9.6 1.2-3.2 2.6-6.1 4.3-8.6 1.7-2.5 3.8-3.7 6.2-3.7s3.7 1.2 3.7 3.5c0 1.2-.2 3-.7 5.2l-2 8.7-3 13.1c-1.2 5.2-2.4 11.3-3.8 18.4l4.4-.1 4.2-.1h6.1c2.4 0 4.7.1 6.9.3 2.2.2 4.1.7 5.7 1.3 1.5.6 2.3 1.6 2.3 3s-1.3 2.5-4 3.5a76 76 0 0 1-9.5 2.5l-11 2.2c-3.7.7-6.5 1.4-8.5 2.2-1.7 7.4-3.2 15.3-4.4 23.7a168.8 168.8 0 0 0-1.6 32.1c.1 1.6.2 3 .5 4.2.2 1.2.6 1.7 1 1.7 1.7 0 5.2-2.5 10.5-7.5s11-12.2 17-21.6c.8-.8 1.7-1.2 2.8-1.2a4 4 0 0 1 2.8 1c.8.7 1.2 1.6 1.2 2.7a128.7 128.7 0 0 1-18.3 27.7 64.4 64.4 0 0 1-9.7 8.8 15.8 15.8 0 0 1-9 3.5c-2.6 0-4.7-.9-6.4-2.8a23.2 23.2 0 0 1-3.9-6.7 57.7 57.7 0 0 1-2.7-16.1 130.9 130.9 0 0 1 1.2-17.4zM337.8 184.5l3.2-22.3c1.1-7.5 2.4-14.9 3.8-22.3 1.5-7.4 3.2-14.7 5.3-21.8s4.7-14.1 7.7-20.9c1.5-3.4 3.4-6.9 5.5-10.6 2.2-3.7 4.6-7 7.4-10 2.8-3 5.8-5.5 9.1-7.5s6.9-3 10.7-3a17 17 0 0 1 12.6 5.4c3.5 3.6 5.2 8.4 5.2 14.2a62 62 0 0 1-4.7 24.1 99 99 0 0 1-12.1 20.9 127.7 127.7 0 0 1-16.5 18 745.9 745.9 0 0 1-17.9 15.7L355 166c-.8 4.5-1.5 8.9-2.1 13.4-.6 4.5-1.2 8.9-1.6 13.4l3.1-3.7a44.4 44.4 0 0 1 9-8c1.6-1 3-1.5 4.3-1.5l2.1.2c3.5 1.5 5.9 3.6 7.1 6.1 1.1 2.5 1.8 5.4 2.1 8.6.2 3.2.3 6.4.3 9.8 0 3.4.5 6.8 1.4 10.2.5 0 .8.1.9.2l4.5-3.7c1.8-1.4 3.3-2.1 4.5-2.1 2.5 0 3.7 1.2 3.7 3.7 0 .8-.5 1.8-1.4 3a23.8 23.8 0 0 1-8 6.8c-1.6.8-3.1 1.3-4.5 1.3-2.8 0-4.9-1.4-6.5-4.3a38.4 38.4 0 0 1-3.5-9.9c-.8-3.8-1.3-7.4-1.6-11-.3-3.5-.7-6-1.2-7.4a31.9 31.9 0 0 0-6.5 7.3 96.6 96.6 0 0 0-4.6 8.3l-4.3 8.7a44 44 0 0 1-5.4 8.1 7.8 7.8 0 0 1-4.2 1.4c-1.5 0-2.8-.5-3.8-1.5s-1.8-2.3-2.3-3.9c-.5-1.6-.9-3.3-1-5.2-.2-1.9-.2-3.7-.2-5.5 0-4.2.3-8.3.8-12.6l1.7-11.7zm28-64.9a275.5 275.5 0 0 0-8.1 31.8l5.1-4.9a248 248 0 0 0 12.1-13c3.9-4.5 7.4-9.3 10.4-14.2 3-4.9 5.4-10.1 7.3-15.6a53.8 53.8 0 0 0 2.8-17.7c0-1.5-.5-2.8-1.5-3.7-1-.9-2.3-1.4-3.8-1.4-2.9 0-5.7 1.4-8.2 4.2a47.4 47.4 0 0 0-6.8 10 185.7 185.7 0 0 0-9.3 24.5z"/><path d="M436.2 169.7c-1.5 3.2-3.2 6.5-5 9.7s-3.8 6.2-6 9a42.6 42.6 0 0 1-7.4 7.3 25 25 0 0 1-9.1 4.5c0 3.2.5 6.4 1.4 9.6.9 3.2 2.8 4.7 5.8 4.7l2.4-.2a42.5 42.5 0 0 0 6.9-3.9c1.8-1.2 3.7-2.7 5.8-4.3 2.1-1.6 4.1-3.4 6-5.3 1.9-1.9 3.3-3.9 4.3-5.9.5-1.1 1.2-1.6 2.1-1.6 1.1 0 2.1.5 3 1.4.9.9 1.4 2 1.4 3.2 0 1.1-.9 2.8-2.8 5.1a124.6 124.6 0 0 1-13.7 14.1 29 29 0 0 1-5.9 4.2c-.5.2-1.8.8-4 2.1a12.7 12.7 0 0 1-5.7 1.9 17.6 17.6 0 0 1-14.9-7.6c-1.6-2.3-2.8-5-3.6-8-.8-3-1.2-6.1-1.2-9.4-.9-.5-1.4-1.3-1.4-2.5 0-1.1.4-2 1.2-2.8l.2-5.7c.2-1.9.5-3.9 1.2-5.9.9-3.2 2.2-7.1 3.8-11.6 1.6-4.5 3.7-8.7 6.1-12.8 2.5-4.1 5.4-7.5 8.8-10.4 3.4-2.8 7.2-4.3 11.6-4.3 4.3 0 7.2 1.4 8.8 4.3 1.5 2.9 2.3 6.1 2.3 9.8a32 32 0 0 1-.6 6.3c-.4 2.1-1 3.8-1.8 5zm-11.1-9.7c-1.5 1.2-3.1 3-4.6 5.4-1.5 2.4-2.9 5-4.2 7.7-1.2 2.8-2.4 5.6-3.5 8.6a66.5 66.5 0 0 0-2.5 8.1 40 40 0 0 0 6.9-9.7l2.3-4a65.6 65.6 0 0 0 4.6-11c.7-1.9 1-3.5 1-5.1z"/><path d="m485.4 166-.1 1.2-.3.9.8-.1.8-.1c2.2 0 3.8.7 4.9 2.2a9.6 9.6 0 0 1 1.6 5.9l-2 7.6-2.7 9.6a199 199 0 0 0-2.4 9.8c-.7 3.2-1 6.1-1 8.5 0 1.4.2 2.7.5 3.9 2.3-.2 4.5-1.1 6.5-2.8 2-1.7 3.9-3.5 5.8-5.4l5.1-5.3c1.5-1.6 2.9-2.4 4.2-2.4 2.5 0 3.7 1.2 3.7 3.7 0 .9-.3 1.9-.9 3l-3.8 4.4a90.5 90.5 0 0 1-6.1 6.7 46.5 46.5 0 0 1-7.7 6.2 15 15 0 0 1-8.4 2.8c-2.2 0-3.9-.7-5.3-2s-2.4-3-3.1-5c-.7-2-1.2-4.1-1.4-6.2l-.3-6-3.6 3.2c-1.5 1.2-3 2.5-4.7 3.7a34.8 34.8 0 0 1-5.1 3.1c-1.7.8-3.2 1.3-4.4 1.3-4 0-7.2-1.3-9.7-3.9-2.5-2.6-3.7-6.2-3.7-10.9a64.5 64.5 0 0 1 10.4-34.8 43 43 0 0 1 10.3-11.2c3.8-2.8 7.4-4.2 11-4.2 3.4 0 6.2 1.1 8.3 3.5 2.2 2.3 3.2 5 3.2 8.1v1zm-29.5 36.5c3.2-1.9 5.9-4.2 7.9-6.9a87 87 0 0 0 5.5-8.8l5.1-9c1.7-2.9 3.8-5.5 6.2-7.6-1.7-.6-2.5-1.9-2.5-3.7l-.2-1.6-5.3-1.9a31.9 31.9 0 0 0-7.3 6.9 51.1 51.1 0 0 0-9.3 29.8v2.8z"/><path d="M537.6 161.2c1.7.3 3.2.9 4.4 1.8l.9-2.1a546.4 546.4 0 0 1 10.7-42.3l2.4-8.6a75 75 0 0 1 3.7-10.7c1.5-3.5 3.3-6.5 5.4-9.1a9.7 9.7 0 0 1 7.6-3.9c2.9 0 5 .9 6.1 2.8 1.2 1.8 1.7 4.3 1.7 7.4 0 2.3-.3 4.8-.8 7.4a109.6 109.6 0 0 1-4.1 15.4l-2.2 6.7a324 324 0 0 1-7.6 20.2c-2.9 7-6.4 14-10.4 20.9l-3.1 17.4-2.9 17.4v-.5l-.5 4.6c-.2 1.5-.2 3.1-.2 4.6 0 4 .6 7.3 1.9 9.9 1.7 0 3.7-.9 6-2.8 2.3-1.8 4.6-4 6.9-6.5a338.4 338.4 0 0 0 10.7-12.1c1.1-.8 2-1.2 2.8-1.2 2.5 0 3.7 1.2 3.7 3.7 0 .9-.3 1.9-.9 3l-7.7 8.5c-2.5 2.9-5 5.6-7.5 8.1a53.2 53.2 0 0 1-7.2 6.1 12 12 0 0 1-6.9 2.4c-2.2 0-4-.7-5.5-2.2a16.1 16.1 0 0 1-3.7-6c-.9-2.5-1.6-5.5-2-9-.4-3.5-.6-7.2-.6-11.2v-4.4l.2-4.2c-1.8 2.5-4.1 5.3-6.7 8.4a142 142 0 0 1-8 9 73.1 73.1 0 0 1-8 7.2c-2.6 1.9-4.9 2.9-6.9 2.9h-1.1a156 156 0 0 1-5.4-3c-1-.6-1.7-2-2-4.2 0-5.7 1-11.7 3.1-17.9a72.3 72.3 0 0 1 8.2-17c3.4-5.1 7.2-9.3 11.4-12.6a21 21 0 0 1 13-5h1.1zm-25.4 44.3c4.8-4.9 9.4-10.5 13.7-16.6 4.4-6.2 8.6-12.6 12.6-19.4-.5-.2-1.1-.2-1.9-.2h-.2a34.2 34.2 0 0 0-16.4 14.9 82 82 0 0 0-7.8 21.3zm37.5-5.7c-.2.2-.2.5-.2.9l.2-.9zm20.5-87.6.1-.3.1-.3-.2.6v.2-.2z"/></g></svg>